<?xml version="1.0" encoding="UTF-8"?>
<!DOCTYPE svg PUBLIC "-//W3C//DTD SVG 1.1//EN" "http://www.w3.org/Graphics/SVG/1.1/DTD/svg11.dtd">
<!-- Creator: CorelDRAW 2021 (64-Bit) -->
<svg xmlns="http://www.w3.org/2000/svg" xml:space="preserve" width="5.20768in" height="4.56193in" version="1.1" shape-rendering="geometricPrecision" text-rendering="geometricPrecision" image-rendering="optimizeQuality" fill-rule="evenodd" clip-rule="evenodd"
viewBox="0 0 831.56 728.44"
 xmlns:xlink="http://www.w3.org/1999/xlink"
 xmlns:xodm="http://www.corel.com/coreldraw/odm/2003">
 <g id="Layer_x0020_1">
  <metadata id="CorelCorpID_0Corel-Layer"/>
  <g id="_2328807373472">
   <path fill="#EFEFEF" d="M467.34 256.12l0 395.82c0,40.82 35.69,76.5 76.5,76.5l211.22 0c40.1,0 76.5,-34.97 76.5,-74.84l0 -217.87c0,-34.61 -36.9,-71.51 -71.51,-71.51l-136.38 0 0 -96.46c0,-42.55 18.73,-79 53.54,-97.81 43.45,-23.48 70.79,-3.89 90.82,-23.94 5.17,-5.18 11.98,-16.37 11.98,-26.27l0 -79.83c0,-23 -16.91,-39.91 -39.91,-39.91 -52.44,0 -75.39,4.29 -120.94,23.75 -58.32,24.91 -109.38,79.44 -132.83,138.25 -11.63,29.17 -18.97,61.31 -18.97,94.12z"/>
   <path fill="#EFEFEF" d="M-0 249.47l0 404.14c0,39.87 36.41,74.84 76.5,74.84l211.22 0c40.82,0 76.5,-35.69 76.5,-76.5l0 -211.22c0,-40.08 -34.83,-76.5 -74.84,-76.5l-133.05 0 0 -104.78c0,-52.4 40.72,-93.81 85.26,-101.01 20.39,-3.3 71.07,6.57 71.07,-43.68l0 -73.18c0,-21.77 -17.24,-41.58 -38.25,-41.58l-16.63 0c-76.18,0 -140.97,35.23 -179.2,73.59 -43.92,44.06 -78.58,108.07 -78.58,175.88z"/>
  </g>
 </g>
</svg>
