<?xml version="1.0" encoding="UTF-8"?>
<!DOCTYPE svg PUBLIC "-//W3C//DTD SVG 1.1//EN" "http://www.w3.org/Graphics/SVG/1.1/DTD/svg11.dtd">
<!-- Creator: CorelDRAW 2021 (64-Bit) -->
<svg xmlns="http://www.w3.org/2000/svg" xml:space="preserve" width="5.33215in" height="5.328in" version="1.1" shape-rendering="geometricPrecision" text-rendering="geometricPrecision" image-rendering="optimizeQuality" fill-rule="evenodd" clip-rule="evenodd"
viewBox="0 0 48314.62 48277.02"
 xmlns:xlink="http://www.w3.org/1999/xlink"
 xmlns:xodm="http://www.corel.com/coreldraw/odm/2003">
 <g id="Layer_x0020_1">
  <metadata id="CorelCorpID_0Corel-Layer"/>
  <g id="_1899529277712">
   <path fill="#000000" d="M9288.42 38872.12c1282.42,-227.45 2415.68,299.62 3239.77,852.8 821.66,551.58 1360.93,1288.05 1567.48,2633.83 202.23,1317.77 -85.69,2457.96 -760.52,3268.6 -2471.58,2968.94 -6925.42,1746.31 -7540.89,-1858.11 -239.97,-1405.17 224.06,-2477.22 848.77,-3324.96 524.93,-712.36 1364.82,-1345.06 2645.38,-1572.16zm18835.47 15.34c2484.53,-517.94 4552.55,1328.04 4917.41,3321.78 453.48,2478.01 -1302.64,4741.58 -3335.55,5019.12 -2620.88,357.8 -4582.48,-1310.99 -4959.72,-3445.18 -383.34,-2168.68 989,-4397.72 3377.86,-4895.72zm5934.42 5231.19c22.8,-340.75 103.1,-796.4 91.43,-1086.93 -16.84,-418.13 -102.88,-582.69 -54.9,-1076.37l2221.91 17.16 3.21 2142.07 -2261.65 4.07zm-18872.53 -2161.9l8520.69 0 21.26 2160.69 -8565.57 1.21 23.62 -2161.9zm-14145.26 1l3783.11 14.77c-13.23,378.28 -110.98,702.37 -111.23,1053.97 -0.25,331.37 88.86,717.17 121.75,1090.21l-3816.25 -18.84 22.62 -2140.11zm15724.65 -17268.81l430.43 -82.48c1223.52,-17.8 6038.12,-50.26 6461.71,61.89l-37.67 16335.34 -9022.26 -167.74c-321.45,-1803.14 -3407.08,-3503.18 -5905.38,-2870.02 -1132.16,286.96 -2316.55,1145.4 -2757.11,1772.32 -1077.58,1533.38 -582.08,1232.12 -3383.53,1232.12l84.19 -16306.91 6839.84 -0.04 7.17 5766.44c655.85,-269.48 3200.1,-1715.24 3687.26,-1692.34 445.09,20.94 2986.96,1427.18 3610.95,1697.33l-15.59 -5745.92zm12628.54 7806.23l4722.1 -3.1c49.87,944.09 320.31,1407.42 546.16,2178.21l-336.04 4 -4617.72 6.21 -314.46 -37.06 -0.04 -2148.24zm-4680.04 -3109.6c376.64,-82.76 7655.58,-183.47 8210.66,99.46 525.72,267.98 792.34,1176.86 708.97,2020.39 -1193.95,0 -2397.85,-15.55 -3590.44,-1.32 -1322.26,15.77 -1656.09,572.73 -1656.09,1869.21 0,2082.82 195.06,2288.26 2329.39,2287.37 1365.96,-0.57 2731.96,0 4114.8,-4.21l1305.11 5313.92 -2454.92 0c-260.88,-626.1 -945.98,-1606.22 -1520.71,-1990.14 -4293.42,-2867.84 -6563.13,425.08 -7446.75,573.95l0 -10168.62zm16644.56 5767.51c-153.25,-209.29 -353.45,-428.72 -512.62,-658.74 -657.21,-949.69 -1457.82,-1677.28 -1846.16,-3021.34 -741.25,-2565.12 1179.71,-5274.14 4226.07,-5248.53 2665.61,22.4 4831.94,2675.1 3874.79,5486.51 -379.81,1115.57 -1273.96,2195.97 -1875.06,2992.84 -558.39,740.36 -1700.33,2439.87 -2294.47,2656.8l-1572.55 -2207.53zm-30789.6 -10489.61l5223.56 -0.04 -8.13 4166.17c-547.48,-186.57 -2260.65,-1276.82 -2694.11,-1256.05 -381.7,18.23 -2092.52,1075.01 -2605.18,1256.02l83.87 -4166.1zm1007.38 -7914.5c-377.14,-214.29 -851.23,-808.03 -1178.14,-1251.31 -379.81,-515.05 -649.79,-877.35 -1057.93,-1378.16l-1027.82 -1406.2c-2537.37,-3804.23 325.98,-7051.35 3263.46,-7034.44 2482.46,14.3 4890.87,2422.14 4018.7,5357.66 -352.02,1184.71 -1215.64,2262.97 -1819.69,3045.53 -451.09,584.43 -1836.24,2481.86 -2198.58,2666.93zm21238.84 5529.99c-909.88,-743.64 -2885.82,-3547.99 -3765.84,-4532.75l-2069.01 -2629.65c-898.29,-1265.37 -1618.53,-2055.99 -2054.81,-3820.64 -1752.45,-7087.7 5394.33,-12643.84 11799.06,-9367.97 3016.17,1542.69 5091.6,5649.57 3998.93,9470.6 -504.03,1762.65 -1197.55,2581.42 -2086.56,3785.68l-1552.04 1976.05c-719.32,904.28 -1369.92,1709.64 -2089.67,2608.57 -439.67,549.19 -1621.88,2329.28 -2180.06,2510.11zm-16569.43 -14971.31c582.44,-32.71 1354.08,-381.7 1920.86,-585.04 626.71,-224.85 1285.31,-403.36 1956.82,-564.89 1765.97,-424.9 2117.74,-247.64 3362.81,-428.29 361.12,-52.37 515.05,-197.17 829.44,-290.06 -101.63,903.42 -456.87,1968.48 -595.56,2967.23 -272.54,1962.35 329.8,4110.38 1336.28,5694.02l3858.42 5041.13c290.84,357.55 538.42,624.6 780.14,979.34l3120.62 3996.79c583.65,-581.37 1716.42,-2154.06 2338.99,-2929.49 154.25,-192.1 290.56,-356.8 445.13,-561.82l4708.26 -5816.56c348.28,1860.15 2706.35,4713.9 2208.67,10467.74 -1197.48,154.89 -1936.34,503.03 -2675.17,1102.41 -2468.66,2002.77 -2520.88,5578.72 -409.89,7905.65 -349.38,1015.19 -2147.6,2908.58 -3006.65,3497.58 -171.37,-228.13 -917.55,-3555.91 -1073.44,-4179.51 -1357.4,-5429.68 -834.83,-5246.71 -5306.57,-5246.71 -1776.85,0 -3553.66,0 -5330.47,0 0,-989.18 61.36,-2021.28 -11.84,-3000.44 -72.63,-971.7 -315.07,-1552.5 -1213.21,-1720.77 -688.35,-128.96 -17211.05,-42.42 -17663.71,-42.42 -333.72,-1586 745.68,-5248.53 1487.86,-6908.84 252.67,-565.24 743.25,-1444.55 883.73,-1910.94 677.04,138.27 742.5,453.41 1080.26,836.14 593.42,672.44 1703.65,2408.3 2227.29,2912.51l108.05 91.54c545.23,-851.56 1166.19,-1586.6 1803.35,-2454.07 1030.28,-1402.71 2928.27,-3660.57 3252.9,-5231.05 348.63,-1686.59 -210.65,-2194.47 -423.37,-3621.19zm27204.41 18006.64c625.39,-3332.52 -762.84,-7748.05 -2117.92,-10283.06 -743,-1389.9 -609.16,-869.21 -17.48,-2291.9 1049.65,-2523.88 868.25,-5715.78 -365.4,-7898.05 -1621.63,-2868.56 -4484.73,-4860.23 -7966.3,-4841.14 -2744.23,15.09 -5100.42,1002.63 -6797.82,2817.76 -358.16,382.99 -1065.27,1318.41 -1339.85,1839.92 -1930.56,118.58 -3226.47,149.26 -5088.89,547.62 -1639.83,350.77 -3761.96,1362.08 -4234.59,1383.19 -995.6,-1114 -1754.73,-1716.24 -3522.2,-1863.14 -2226.83,-185.11 -4233.52,1089.57 -5161.6,2925.49 -325.66,644.26 -469.67,1408.81 -493.68,2216.09 -66.21,2224.69 1071.52,3003.22 1475.34,3862.38l-693.2 1005.49c-1422.72,2414.9 -2276.59,6094.63 -2328.86,8858.23 -1998.09,0 -3242.02,-345.99 -3232.82,1972.8l0.86 15357.68c-936.39,177.37 -1380.34,209.33 -1515.11,1231.23 -70.1,531.6 -102.77,2075.15 150.47,2422.93 617.68,848.31 3561.04,527.07 4827.3,527.07 224.17,46.02 662.99,960.64 1124.88,1499.42 359.41,419.2 911.74,804.43 1492.96,1112.36 1289.44,683.14 2887.46,719.56 4268.27,182.68 607.19,-236.09 1200.58,-601.95 1586.21,-1015.94 1832.39,-1967.38 478.16,-1778.52 3448.28,-1778.52l5120.82 0c982.98,0 1727.41,-194.42 2207.92,416.77 783.17,996.18 1054.07,1741.78 2719.44,2398.99 2380.87,939.6 4962.72,-56.61 6286.19,-2075.36 166.95,-254.67 250.57,-561.28 539.17,-740.4 1114.08,0 3050.17,355.41 3358.14,-820.88 294.27,-1123.78 141.44,-2812.37 -158.85,-3867.58 -571.88,-2009.58 9.56,-1569.44 991.47,-2686.52 327.77,-372.93 663.24,-688.1 999.85,-1096.17l853.66 -1222.27c575.59,168.45 693.31,324.23 991.11,747.64l1530.2 1994.45c237.8,324.38 430.25,710.43 768.15,927.93l3800.84 -5084.15c412.1,-568.85 823.94,-1063.95 1094.24,-1840.42 1023.5,-2940.12 -1022.43,-6842.63 -4601.21,-6842.63z"/>
   <path fill="#000000" d="M31912.42 4222.61c1436.92,-348.6 3091.41,233.87 3960.94,908.42 2167.93,1681.81 2677.6,4692.21 970.06,6999.73 -1760.69,2379.4 -4745.29,2635.29 -6965.73,1012.12 -3358.71,-2455.25 -2530.55,-7812.79 2034.73,-8920.27zm-4.6 -1013.98c-4949.48,620.93 -6994.34,7290.79 -2795.85,10615.46 4330.52,3429.23 10674.15,-381.63 9653.53,-5632.02 -638.69,-3285.43 -3283.29,-5431.86 -6857.68,-4983.44z"/>
   <path fill="#000000" d="M28459.78 42088.14c542.52,-307.79 1290.73,91.61 1422.18,531.21 188.03,628.88 -148.22,1279.28 -568.42,1443.02 -1288.7,502.24 -2077.04,-1280.17 -853.77,-1974.23zm2465.84 1526.81c188.71,-574.77 -53.69,-1295.05 -281.53,-1691.8 -787.63,-1371.53 -3325.21,-1249.53 -3728.57,570.49 -630.31,2844.01 3204.49,3574.64 4010.1,1121.32z"/>
   <path fill="#000000" d="M9702.33 42030.2c1177.64,-472.28 1983.08,1661.48 563.39,2035.66 -723.38,190.67 -1192.06,-168.06 -1336.96,-745.39 -191.21,-761.91 302.22,-1101.27 773.57,-1290.27zm-341.07 -928.43c-591,233.12 -839.11,443.78 -1151.07,912.2 -1062.88,1595.98 582.72,3541.07 2359.28,3026.48 2678.95,-775.93 1279.53,-4919.87 -1208.22,-3938.68z"/>
   <path fill="#000000" d="M44087.91 30854.85c-482.84,1270 -2588.06,489.54 -1992.96,-873.96 174.26,-399.22 767.05,-728.45 1379.95,-559.11 522.83,144.44 861.12,780.46 613.01,1433.07zm-1676.61 -2364.99c-2655.44,1071.55 -1168.58,4733.59 1430.35,3902.3 814.85,-260.63 1587.17,-1475.3 1229.83,-2630.9 -259.81,-840.03 -1464.99,-1753.7 -2660.19,-1271.39z"/>
   <path fill="#000000" d="M12593.97 10203.65c-424.83,1346.63 -2540.18,819.2 -2050.75,-610.94 498.03,-1455.15 2421.68,-564.85 2050.75,610.94zm-1453.86 -2303.53c-2723.51,800.11 -1892.36,4493.76 902.43,4029.01 889.3,-147.87 1808.6,-1278.99 1549.5,-2398.6 -208.44,-900.75 -1256.63,-1981.54 -2451.93,-1630.41z"/>
   <path fill="#000000" d="M14597.38 40835.97l9022.26 167.74 37.67 -16335.34c-423.58,-112.16 -5238.19,-79.69 -6461.71,-61.89l-430.43 82.48 6806.74 0 0 16231.04c-1508.19,0 -3016.35,0 -4524.54,0 -818.88,0 -3998.51,143.19 -4449.99,-84.01z"/>
   <polygon fill="#000000" points="18942.7,21536.64 19215.28,21536.64 19934.24,21504.15 19952.93,21201 19949.79,20865.06 19934.38,20476.29 19636.72,20413.76 18942.45,20424.17 "/>
   <polygon fill="#000000" points="22092.4,21510.39 22404.9,21541.89 23071.16,21510.6 23105.13,20865.24 23097.63,20424.17 22090.26,20434.2 "/>
   <polygon fill="#000000" points="25259.54,21536.64 25511.36,21536.64 26230.35,21504.15 26248.01,20450.57 25931.55,20418.86 25259.54,20424.17 "/>
  </g>
 </g>
</svg>
