<?xml version="1.0" encoding="UTF-8"?>
<!DOCTYPE svg PUBLIC "-//W3C//DTD SVG 1.1//EN" "http://www.w3.org/Graphics/SVG/1.1/DTD/svg11.dtd">
<!-- Creator: CorelDRAW 2021 (64-Bit) -->
<svg xmlns="http://www.w3.org/2000/svg" xml:space="preserve" width="5.33266in" height="3.9995in" version="1.1" shape-rendering="geometricPrecision" text-rendering="geometricPrecision" image-rendering="optimizeQuality" fill-rule="evenodd" clip-rule="evenodd"
viewBox="0 0 1010.1 757.57"
 xmlns:xlink="http://www.w3.org/1999/xlink"
 xmlns:xodm="http://www.corel.com/coreldraw/odm/2003">
 <g id="Layer_x0020_1">
  <metadata id="CorelCorpID_0Corel-Layer"/>
  <path fill="#3798DD" d="M59.19 181.5l217.01 144.02c36.02,24.01 71.15,47.43 107.72,71.81 18.88,12.59 35.78,23.85 54.45,36.3 22.15,14.77 34.83,26.04 68.66,26.04 27.37,0 46.82,-13.4 63.92,-24.85 18.54,-12.41 36.73,-23.59 54.14,-36.61 4.88,-3.65 7.74,-5.04 13.28,-8.42l95.92 -63.88c72.62,-48.41 144.45,-96.08 216.62,-144.41l0 408.38c0,43.3 10.63,106.53 -31.57,106.53l-828.59 0c-43.03,0 -31.57,-63.13 -31.57,-104.56l0 -410.35zm0 -86.81c0,-17.97 13.17,-33.54 31.57,-33.54l828.59 0c25.26,0 48.64,36.54 13.82,59.2l-310.14 206.74c-19.07,12.71 -36.36,24.24 -55.64,37.09 -10.21,6.81 -18.41,12.27 -28.41,18.94 -40.88,27.25 -41.92,17.3 -95.09,-18.15 -18.61,-12.41 -36.67,-24.45 -55.63,-37.09 -21.45,-14.3 -317.34,-209.27 -322.41,-216.17 -1.9,-2.59 -6.66,-13.72 -6.66,-17.02zm-59.19 -7.89l0 583.96c0,43.47 42.71,86.81 90.75,86.81l828.59 0c25.55,0 49.54,-13.14 62.7,-26.08 12.7,-12.49 28.06,-36.54 28.06,-60.72l0 -583.96c0,-43.17 -42.48,-86.81 -90.75,-86.81l-828.59 0c-48.27,0 -90.75,43.63 -90.75,86.81z"/>
 </g>
</svg>
