<?xml version="1.0" encoding="UTF-8"?>
<!DOCTYPE svg PUBLIC "-//W3C//DTD SVG 1.1//EN" "http://www.w3.org/Graphics/SVG/1.1/DTD/svg11.dtd">
<!-- Creator: CorelDRAW 2021 (64-Bit) -->
<svg xmlns="http://www.w3.org/2000/svg" xml:space="preserve" width="4.54202in" height="4.54202in" version="1.1" shape-rendering="geometricPrecision" text-rendering="geometricPrecision" image-rendering="optimizeQuality" fill-rule="evenodd" clip-rule="evenodd"
viewBox="0 0 694.73 694.73"
 xmlns:xlink="http://www.w3.org/1999/xlink"
 xmlns:xodm="http://www.corel.com/coreldraw/odm/2003">
 <g id="Layer_x0020_1">
  <metadata id="CorelCorpID_0Corel-Layer"/>
  <path fill="#FCD5A6" d="M-0 88.2l0 518.34c0,10.95 4.85,26.93 8.56,34.86 4.98,10.63 11.14,18.08 18.92,25.86 15.4,15.4 37.38,27.48 60.72,27.48l256.45 0 0 -248.31 -59.7 0c-14.59,0 -20.35,-5.77 -20.35,-20.35l0 -71.92c0,-9.81 5.43,-17.64 14.93,-17.64l65.13 0 0 -85.48c0,-38.93 15.87,-73.71 35.62,-93.29 45.48,-45.1 104.47,-36.97 165.21,-36.97 6.82,0 13.57,6.75 13.57,13.57l0 69.2c0,16.47 -19.66,13.57 -28.49,13.57 -89.12,-0.06 -78.7,15.09 -78.7,119.41l96.34 0c22.98,0 11.43,34.76 9.54,57.03 -0.87,10.17 -2.35,41.26 -9.04,47.95 -3.93,3.93 -8.15,4.93 -15.42,4.93l-81.41 0 0 248.31 154.69 0c32.76,0 65.32,-24.26 79.2,-52.42 3.91,-7.94 9,-24.62 9,-35.78l0 -518.34c0,-44.58 -43.69,-88.2 -88.2,-88.2l-518.34 0c-32.76,0 -65.32,24.26 -79.2,52.42 -3.91,7.94 -9,24.62 -9,35.78z"/>
 </g>
</svg>
