<?xml version="1.0" encoding="UTF-8"?>
<!DOCTYPE svg PUBLIC "-//W3C//DTD SVG 1.1//EN" "http://www.w3.org/Graphics/SVG/1.1/DTD/svg11.dtd">
<!-- Creator: CorelDRAW 2021 (64-Bit) -->
<svg xmlns="http://www.w3.org/2000/svg" xml:space="preserve" width="5.33266in" height="5.33266in" version="1.1" shape-rendering="geometricPrecision" text-rendering="geometricPrecision" image-rendering="optimizeQuality" fill-rule="evenodd" clip-rule="evenodd"
viewBox="0 0 1053.93 1053.93"
 xmlns:xlink="http://www.w3.org/1999/xlink"
 xmlns:xodm="http://www.corel.com/coreldraw/odm/2003">
 <g id="Layer_x0020_1">
  <metadata id="CorelCorpID_0Corel-Layer"/>
  <g id="_2099831393888">
   <path fill="#FCD5A6" d="M-0 746.16c8.76,4.39 44.16,48.21 52.22,58.08l99.65 114.29c4.42,4.61 4.44,5.84 8.31,10.31l106.34 123.03c17.78,0 30.46,1.8 45.7,2.06l10.62 0c15.34,-0.06 30.68,-0 46.02,0l0.84 0 0.84 0 1.67 0 1.67 0 1.67 0 1.67 0 1.67 0 1.67 0 1.67 0 1.67 0 1.67 0 1.67 0 1.67 0 1.67 0 1.67 0 1.67 0 1.67 0 1.67 0 1.67 0 1.67 0 1.67 0 1.67 0 1.67 0 1.67 0 1.67 0 1.67 0 1.67 0 1.67 0 1.67 0 1.67 0 1.67 0 1.67 0 1.67 0 1.67 0 1.67 0 1.67 0 1.67 0 1.67 0 1.67 0 1.67 0 1.67 0 1.67 0 1.67 0 1.67 0 1.67 0 1.67 0 1.67 0 1.67 0 1.67 0 1.67 0 1.67 0 1.67 0 1.67 0 1.67 0 1.67 0 1.67 0 1.67 0 1.67 0 1.67 0 1.67 0 1.67 0 1.67 0 1.67 0 1.67 0 1.67 0 1.67 0c-2.05,-7.18 -8.46,-11.34 -13.23,-17.44l-90.89 -104.67c-5.64,-7.27 -11.44,-10.92 -15.27,-18.82 -54.89,-6.78 -93.12,-15.05 -132.06,-41.69 -30.89,-21.14 -57.5,-55.93 -72.33,-102.75 -25.38,-80.14 -14.23,-241.82 -15.76,-334.06 -4.5,10.66 -2.29,112.3 -2.57,133.51 -7.82,-6.86 -10.26,-11.89 -17.24,-19.06 -19.47,-20.03 -48.38,-57.63 -67.95,-78.2l-50.03 -57.12 0 332.52z"/>
   <path fill="#FCD5A6" d="M208.3 586.67l3.92 12.41c1.42,21.69 -3.94,8.6 12.57,28.43l185.87 216.75c50.44,0.95 100.65,1.43 151.31,1.88 35.34,0.32 120.52,3.17 149.84,-5.59l-39.99 -46.73c-6.09,-6.1 -8.45,-10.18 -14.42,-16.47l-41.13 -47.42c-3.24,-3.69 -3.14,-4.29 -6.35,-8.04 -5.14,-6 -4.18,-2.72 -7.26,-10.25 -74.06,31.43 -166.23,7.14 -209.46,-36.47 -25.16,-25.37 -42.28,-44.77 -55.08,-82.87 -14.35,-42.7 -13.71,-75.78 -3.27,-120.67 -10.24,-6.38 -72.27,-80.58 -84.04,-94.58l-14.31 -16.58c-3.05,-3.3 -3.85,-3.74 -6.86,-7.53 -7.74,-9.76 -7.23,-5.66 -10.51,-18.5 -14.44,17.28 -10.84,216.52 -10.81,252.22z"/>
   <path fill="#FCD5A6" d="M672.74 138.73c102.48,6.58 158.57,32.05 201.3,92.64 45.47,64.48 41.9,162.65 42,251.74 9.5,5.05 33.86,37.17 43.45,47.77l94.44 108.54 0 -270.71c-0.35,-0.37 -0.8,-0.9 -1.01,-1.13l-29.18 -32.81c-0.24,-0.37 -0.52,-0.91 -0.77,-1.27 -3.88,-5.57 -7.13,-5.27 -12.11,-12.6 -9.65,-14.22 -5.78,-4.49 -13.11,-15.72 -1.91,-2.93 -0.55,-2.28 -4.34,-5.87 -6.7,-6.34 -5.87,-2.31 -11.39,-11.33 -6.56,-10.7 -4.38,-4.41 -9.43,-11.13 -2.95,-3.92 -0.15,-2.27 -4.91,-7.41 -2.94,-3.17 -3.04,-2.38 -5.74,-4.5l-15.21 -17.79c-0.28,-0.33 -0.65,-0.82 -0.91,-1.17l-2.35 -3.85c-5.16,-7.61 -5.67,-4.2 -10.85,-11.79 -11.07,-16.22 -7.31,-5.81 -15.16,-17.78 -2.15,-3.27 -0.5,-2.03 -4.4,-5.81l-9.48 -11.18c-4.62,-6.44 -6.2,-4.54 -10.89,-9.64l-14.34 -18.67c-9.12,-13.85 -8.29,-5.04 -15.74,-17.19l-39.33 -47.12c-2.38,-3.26 -2.3,-2.52 -5.13,-5.08 -8.46,-7.66 -3.54,-6.5 -10.03,-12.63 -3.71,-3.51 -2.55,-1.54 -5.89,-4.38l-14.93 -18.08c-14.04,-18.68 -8.2,-7.37 -14.97,-15.89 -4.01,-5.04 -1.25,-3.27 -4.66,-7.7l-7.96 -8.55c-9.43,-13.65 -6.04,-5.8 -11.55,-13.13 -8.55,-11.38 -11.76,-12.59 -13.6,-17.51l-179.19 0c1.89,7.59 1.46,4.88 6.64,10.22l110.69 128.51z"/>
   <path fill="#FCD5A6" d="M510.16 398.27c-162.98,18.29 -143.93,277.39 34.51,257.39 160.98,-18.04 142.93,-277.3 -34.51,-257.39z"/>
   <path fill="#FCD5A6" d="M35.05 111.16c2.21,8.19 15.6,20.38 21.46,27.9l106.16 120.91c15.44,-22.46 6.08,-20.67 36.72,-54.38 50.84,-55.94 139.47,-67.07 215.91,-67.76 3.28,-3.03 -2.88,-0.61 4.26,-3.65l-103.22 -117.08c-4.67,-5.84 -10.88,-11.71 -14.11,-17.1 -80.01,0 -169.54,6.02 -224.55,59.14 -14.81,14.3 -33.19,33.63 -42.61,52.02z"/>
   <path fill="#FCD5A6" d="M362.53 212.66c14.76,3.48 12.1,-4.44 21.56,8.4l75.42 87.23c10.63,11.94 17.94,17.74 16.78,25.01 65.97,-10.53 111.54,-7.92 167.44,31.61 41,28.99 72.56,77.5 80.58,131.56 7.81,52.63 -2.97,77.47 -18.33,119.97 10.53,-0.19 7.09,3.58 17.41,14.65l99.4 114.75c5.85,9.3 -0.57,6.32 7.22,9.26 11.02,-20.04 20.91,-129.47 15.37,-154.35 -7.35,-25.93 11.36,-28.28 -13.41,-53.53 -4.39,-4.48 -5.47,-6.85 -9.46,-11.14l-121.25 -140.16c-20.18,-21.8 -62.18,-74.12 -81.31,-93.66 -4.83,-4.93 -5.97,-7.45 -10.33,-12.33l-70.4 -82.28c-28.33,0.53 -161.85,-3.95 -176.69,5.01z"/>
   <path fill="#FCD5A6" d="M1053.93 244.73c-3.03,-59.43 -15.07,-115.26 -56.18,-163.85 -18.68,-22.08 -45.47,-43.19 -72.12,-55.51 -8.91,-4.12 -21.42,-9.42 -31.03,-12.2 -37.34,-10.82 -71.34,-12.86 -112.1,-13.17l-47.92 0c1.84,4.92 5.05,6.13 13.6,17.51 5.51,7.33 2.12,-0.52 11.55,13.13l7.96 8.55c3.41,4.42 0.65,2.65 4.66,7.7 6.77,8.52 0.93,-2.8 14.97,15.89l14.93 18.08c3.35,2.84 2.19,0.87 5.89,4.38 6.49,6.13 1.56,4.97 10.03,12.63 2.83,2.56 2.74,1.82 5.13,5.08l39.33 47.12c7.44,12.15 6.62,3.34 15.74,17.19l14.34 18.67c4.69,5.11 6.27,3.2 10.89,9.64l9.48 11.18c3.9,3.77 2.25,2.53 4.4,5.81 7.85,11.97 4.09,1.56 15.16,17.78 5.18,7.59 5.68,4.18 10.85,11.79l2.35 3.85c0.26,0.35 0.63,0.84 0.91,1.17l15.21 17.79c2.7,2.12 2.8,1.33 5.74,4.5 4.75,5.14 1.96,3.49 4.91,7.41 5.06,6.73 2.88,0.44 9.43,11.13 5.53,9.02 4.69,4.99 11.39,11.33 3.79,3.59 2.43,2.93 4.34,5.87 7.33,11.23 3.46,1.5 13.11,15.72 4.98,7.33 8.22,7.03 12.11,12.6 0.25,0.36 0.53,0.9 0.77,1.27l29.18 32.81c0.21,0.24 0.66,0.76 1.01,1.13l0 -123.98z"/>
   <path fill="#FCD5A6" d="M-0 413.64l50.03 57.12c19.57,20.56 48.48,58.17 67.95,78.2 6.98,7.18 9.42,12.21 17.24,19.06 0.27,-21.21 -1.93,-122.85 2.57,-133.51 -0.54,-30.55 0.9,-64.62 4.56,-94.67 4.26,-35.02 12.49,-50.83 20.33,-79.88l-106.16 -120.91c-5.85,-7.52 -19.24,-19.7 -21.46,-27.9 -0.33,0.37 -0.79,0.48 -0.92,1.16l-3.3 4.98c-1.2,2.13 -2.05,4.14 -3.41,6.88 -2.74,5.53 -4.54,8.99 -6.58,14 -11.13,27.3 -19.98,69.88 -20.85,101.95l0 170.87 0 2.64z"/>
   <path fill="#FCD5A6" d="M662.01 915.62l108.64 125.1c5.6,5.55 4.85,2.94 6.69,11.16 46.68,0 98.35,-3.2 139.58,-19.68 29.09,-11.63 81.95,-50.03 90.03,-72.95l-102.05 -118.51c-7.38,-9.47 -7.72,-11.38 -17.35,-15.91 -0.57,-0.27 -2.25,-0.99 -2.81,-1.24l-7.95 -3.38c-18.6,18.5 -22.26,42.81 -84.63,70.72 -34.26,15.33 -88.58,23.93 -130.15,24.68z"/>
   <path fill="#FCD5A6" d="M719.63 275.85c56.85,-22.62 89.68,68.38 28.96,87.91 -53.48,17.2 -90.1,-63.58 -28.96,-87.91zm125.75 324.89c6.65,-12.18 3.13,-147.22 2.08,-171.66 -2.24,-52.03 -7.55,-107.4 -28.34,-148.97 -19.92,-39.82 -51.93,-59.43 -107.31,-67.6 -53.97,-7.97 -117.16,-5.23 -172.6,-4.85l70.4 82.28c4.36,4.88 5.5,7.39 10.33,12.33 19.13,19.54 61.13,71.85 81.31,93.66l121.25 140.16c3.99,4.29 5.07,6.66 9.46,11.14 24.77,25.26 6.06,27.6 13.41,53.53z"/>
   <path fill="#FCD5A6" d="M219.11 334.45c3.29,12.84 2.77,8.74 10.51,18.5 3.01,3.79 3.8,4.23 6.86,7.53l14.31 16.58c11.77,14 73.8,88.2 84.04,94.58 11.86,-39.14 28.82,-63.8 52.19,-86.69 13.24,-12.97 21.88,-20.2 39.46,-30.56 18.26,-10.76 29.64,-13.05 49.82,-21.09 1.17,-7.27 -6.14,-13.08 -16.78,-25.01l-75.42 -87.23c-9.46,-12.84 -6.81,-4.92 -21.56,-8.4 -31.82,-6.08 -83.23,15.39 -101.76,29.58 -16.38,12.54 -44.01,58.25 -41.66,92.22z"/>
   <path fill="#FCD5A6" d="M415.29 137.83l257.45 0.9 -110.69 -128.51c-5.19,-5.34 -4.76,-2.63 -6.64,-10.22l-253.19 0c3.22,5.39 9.44,11.27 14.11,17.1l103.22 117.08c-7.13,3.04 -0.98,0.62 -4.26,3.65z"/>
   <path fill="#FCD5A6" d="M266.52 1051.87l-106.34 -123.03c-3.88,-4.47 -3.89,-5.7 -8.31,-10.31l-99.65 -114.29c-8.06,-9.87 -43.46,-53.68 -52.22,-58.08l0 62.33c0.22,2.76 0.5,5.39 0.86,7.86 8.9,61.6 14.95,105.64 55.88,158.2 19.03,24.44 51.43,47.77 82.95,59.08 27.95,10.03 59.29,16.51 90.84,16.2 15.16,-0.15 21.03,2.04 35.99,2.04z"/>
   <path fill="#FCD5A6" d="M876.78 820.22l7.95 3.38c0.56,0.25 2.24,0.97 2.81,1.24 9.63,4.52 9.97,6.43 17.35,15.91l102.05 118.51c11.57,-9.6 28.83,-50.67 34.4,-68.17 8.45,-26.55 12.59,-55.39 12.59,-90.12 -9.25,-2.76 -11.58,-10.25 -18.08,-17.13 -4.26,-4.51 -4.74,-5.46 -8.46,-10.08l-111.76 -129.28c-0.83,33.03 -2.41,65.98 -8.95,97.73 -7.14,34.71 -16.39,50.61 -29.9,78.02z"/>
   <path fill="#FCD5A6" d="M602.65 711.65c3.07,7.53 2.11,4.25 7.26,10.25 3.2,3.74 3.11,4.35 6.35,8.04l41.13 47.42c5.97,6.29 8.33,10.37 14.42,16.47l39.99 46.73c26.9,-3.46 56.85,-13.54 75.01,-26.98 16.16,-11.96 36.17,-32.64 43.21,-58.48 -7.79,-2.94 -1.37,0.04 -7.22,-9.26l-99.4 -114.75c-10.33,-11.07 -6.88,-14.84 -17.41,-14.65l-19.64 30.8c-13.25,17.55 -11.42,12.51 -23.62,25.8 -12.97,14.12 -38.6,30.25 -60.07,38.63z"/>
   <path fill="#FCD5A6" d="M597.83 1053.93l1.4 0 1.4 0 1.4 0 1.4 0 1.4 0 1.4 0 1.4 0 1.4 0 1.4 0 1.4 0 1.4 0 1.4 0 1.4 0 1.4 0 1.4 0 1.4 0 1.4 0 1.4 0 1.4 0 1.4 0 1.4 0 1.4 0 1.4 0 1.4 0 1.4 0 1.4 0 1.4 0 1.4 0 1.4 0 1.4 0 1.4 0 1.4 0 1.4 0 1.4 0 1.4 0 1.4 0 1.4 0 1.4 0 1.4 0 1.4 0 1.4 0 1.4 0 1.4 0 1.4 0 1.4 0 1.4 0 1.4 0 1.4 0 1.4 0 1.4 0 1.4 0 1.4 0 1.4 0 1.4 0 1.4 0 1.4 0 1.4 0 1.4 0 1.4 0 1.4 0 1.4 0 1.4 0 1.4 0 1.4 0 0.71 0 0.71 0 0.71 0c13.76,-0 27.52,-0.04 41.28,0l4.32 0c15.61,-0.13 25.99,-2.06 42.08,-2.06 -1.84,-8.22 -1.09,-5.61 -6.69,-11.16l-108.64 -125.1 -141.45 0.6 -38 3.9c4.57,0.54 18.11,19.93 22.15,24.38l21.38 23.97c12.88,16.25 65.48,73.67 71.74,85.47z"/>
   <path fill="#FCD5A6" d="M915.63 644.47l111.76 129.28c3.71,4.62 4.2,5.57 8.46,10.08 6.5,6.88 8.83,14.37 18.08,17.13l0 -161.54 -94.44 -108.54c-9.59,-10.6 -33.95,-42.72 -43.45,-47.77l-0.4 161.36z"/>
   <path fill="#FCD5A6" d="M410.65 844.27l-185.87 -216.75c-16.51,-19.83 -11.15,-6.74 -12.57,-28.43l-3.92 -12.41c0.17,62.05 -0.04,153.76 30.37,199.76 15.28,23.11 33.03,35.74 67.75,45.5 30.78,8.65 70.46,11.82 104.24,12.33z"/>
   <path fill="#FCD5A6" d="M477.31 1053.93l120.52 0c-6.27,-11.79 -58.87,-69.22 -71.74,-85.47l-21.38 -23.97c-4.04,-4.44 -17.58,-23.84 -22.15,-24.38l38 -3.9c-54.37,0.02 -108.67,1.65 -162.64,-3.21 3.84,7.89 9.63,11.54 15.27,18.82l90.89 104.67c4.77,6.1 11.18,10.26 13.23,17.44z"/>
  </g>
 </g>
</svg>
