<svg width="791" height="789" xmlns="http://www.w3.org/2000/svg" xmlns:xlink="http://www.w3.org/1999/xlink" xml:space="preserve" overflow="hidden"><defs><clipPath id="clip0"><rect x="2490" y="1378" width="792" height="560"/></clipPath><clipPath id="clip1"><rect x="2490" y="1378" width="792" height="560"/></clipPath><clipPath id="clip2"><rect x="2490" y="1378" width="792" height="560"/></clipPath></defs><g transform="translate(-2490 -1149)"><g clip-path="url(#clip0)"><g clip-path="url(#clip1)"><g clip-path="url(#clip2)"><path d="M564.93 493.928C564.93 474.701 565.963 464.333 579.95 450.295 597.732 432.449 623.064 428.487 644.216 439.34 692.909 464.316 679.617 536.965 622.739 542.496 606.869 544.04 592.754 536.879 583.612 529.268 575.564 522.566 564.93 508.103 564.93 493.928ZM154.353 543.319C126.259 543.319 98.7873 519.616 98.7873 493.928 98.7873 474.701 99.8207 464.333 113.808 450.295 137.489 426.523 173.846 429.164 193.364 450.291 227.589 487.337 197.043 543.319 154.358 543.319ZM759.413 464.599 774.849 464.599 774.849 480.035 759.413 480.035 759.413 464.599ZM689.955 464.599 742.433 464.599 742.433 480.035 689.955 480.035 689.955 464.599ZM452.254 433.727 486.21 433.727 486.21 480.031 452.254 480.031 452.254 433.727ZM407.494 433.727 436.823 433.727 436.823 480.031 407.494 480.031 407.494 433.727ZM358.102 433.727 392.058 433.727 392.058 480.031 358.102 480.031 358.102 433.727ZM759.417 396.684 774.854 396.684 774.854 447.619 759.417 447.619 759.417 396.684ZM564.934 441.445 564.934 405.942 646.742 405.942C651.098 405.942 658.272 416.464 662.834 422.261 665.643 425.833 667.336 427.269 669.969 430.562 673.292 434.717 674.523 435.116 674.523 442.984 670.273 439.871 673.069 440.356 664.219 433.221 659.751 429.615 657.809 427.818 652.432 424.941 632.082 414.063 608.267 414.474 588.046 424.426 570.255 433.182 573.308 435.832 564.93 441.445ZM78.7245 480.031 66.3756 480.031 66.3756 405.942 547.955 405.942 547.955 480.031 501.65 480.031C501.65 463.686 503.451 432.646 500.107 418.291 487.157 415.276 357.159 415.276 344.21 418.291 340.865 432.646 342.666 463.686 342.666 480.031L223.816 480.031C222.375 462.717 211.999 445.162 201.344 436.132 194.38 430.236 189.891 426.326 180.882 422.638 138.608 405.333 96.1288 429.778 85.0577 467.841 83.3125 473.835 84.6589 480.031 78.7245 480.031ZM564.934 20.0628 612.13 40.7815C657.256 59.6223 679.814 80.0066 704.173 120.072 706.668 124.176 714.245 140.148 714.657 145.092L564.934 145.092 564.934 125.025 609.695 125.025 609.695 109.588 564.934 109.588 564.934 20.0628ZM524.805 125.02 547.959 125.02 547.959 279.373 564.939 279.373 564.939 160.523 719.292 160.523C723.871 160.523 723.031 162.402 724.703 165.918L734.947 189.629C739.303 200.19 744.256 210.944 748.839 222.041 753.702 233.82 774.858 277.667 774.858 287.087L774.858 379.7C735.333 379.7 742.446 369.632 742.446 447.615L689.967 447.615C689.967 423.487 689.419 427.599 664.086 397.863 663.43 397.092 659.142 392.161 659.061 392.083 657.749 390.861 658.752 391.204 656.415 390.098 650.206 387.161 577.755 388.962 564.943 388.962L564.943 310.242 547.963 310.242 547.963 388.962 501.659 388.962 501.659 15.4319 547.963 15.4319 547.963 109.588 524.809 109.588 524.809 125.025ZM0.00857566 15.4319 426.022 15.4319 426.022 388.962 0.00857566 388.962 0.00857566 405.942 49.4001 405.942 49.4001 484.662C49.4001 500.137 67.2546 497.011 83.3554 497.011 83.3554 505.844 86.7556 514.908 90.1645 521.074 114.065 564.3 169.532 570.929 202.647 539.126 211.57 530.559 222.53 512.451 223.816 497.011L549.498 497.011C549.498 505.844 552.898 514.908 556.307 521.074 580.208 564.3 635.675 570.929 668.79 539.126 677.713 530.559 688.672 512.451 689.959 497.011 707.968 497.011 725.972 497.011 743.981 497.011 756.553 497.011 790.285 501.5 790.285 489.293L790.285 279.373C790.285 273.401 722.246 116.333 711.591 100.301 672.683 41.7506 633.981 34.264 578.304 8.23263 572.241 5.39838 561.367-0.00428783 554.125-0.00428783L492.384-0.00428783C488.77-0.00428783 486.21 2.55555 486.21 6.17019L486.21 388.962 442.993 388.962 442.993 9.25742C442.993 5.08965 442.255 4.99961 441.449 1.53933 437.989 0.733219 437.899-0.00428783 433.731-0.00428783L-1.94988e-13-0.00428783-1.94988e-13 15.4319Z" fill-rule="evenodd" transform="matrix(1.00047 0 0 1 2490.17 1378)"/><path d="M0 52.4787 387.422 52.4787 387.422 353.463 311.789 353.463 311.789 368.899 396.684 368.899C400.299 368.899 402.859 366.339 402.859 362.725L402.859 44.7606C402.859 40.5929 402.121 40.5028 401.315 37.0426 397.855 36.2364 397.765 35.4989 393.597 35.4989L-4.8747e-14 35.4989-4.8747e-14 52.4787Z" fill-rule="evenodd" transform="matrix(1.00047 0 0 1 2490.17 1378)"/><path d="M620.496 229.986 620.496 186.769 696.129 186.769 736.255 268.581C713.28 268.577 688.951 262.801 666.762 260.902 643.252 258.891 620.5 259.74 620.5 229.991ZM605.06 175.964 605.06 237.704C605.06 250.881 614.364 262.235 622.661 267.955 635.401 276.736 688.63 280.42 706.934 282.469 778.657 290.496 769.97 298.952 718.254 195.516 715.111 189.226 707.68 169.789 700.76 169.789L614.322 169.789C609.583 169.789 605.06 171.217 605.06 175.964Z" fill-rule="evenodd" transform="matrix(1.00047 0 0 1 2490.17 1378)"/><path d="M0 368.899 280.921 368.899 280.921 353.467 0 353.467Z" fill-rule="evenodd" transform="matrix(1.00047 0 0 1 2490.17 1378)"/><path d="M601.973 489.297C601.973 467.566 625.388 467.292 632.528 475.722 642.703 487.736 634.955 504.506 620.093 505.574 611.084 506.221 601.973 499.279 601.973 489.297ZM584.993 486.21C584.993 534.637 652.908 530.816 652.908 490.841 652.908 479.902 650.974 470.495 642.372 462.785 618.061 440.99 584.993 462.974 584.993 486.21Z" fill-rule="evenodd" transform="matrix(1.00047 0 0 1 2490.17 1378)"/><path d="M152.81 506.273C133.592 506.273 124.66 470.769 157.44 470.769 160.073 470.769 165.575 474.838 167.02 476.626 177.293 489.34 166.222 506.268 152.814 506.268ZM118.854 486.206C118.854 496.406 122.302 504.334 127.151 510.325 145.143 532.544 186.769 520.517 186.769 490.836 186.769 479.898 184.835 470.491 176.234 462.781 163.371 451.251 143.651 450.424 129.981 463.377 125.136 467.965 118.854 477.484 118.854 486.206Z" fill-rule="evenodd" transform="matrix(1.00047 0 0 1 2490.17 1378)"/><path d="M612.778 364.272 652.908 364.272 652.908 348.836 612.778 348.836Z" fill-rule="evenodd" transform="matrix(1.00047 0 0 1 2490.17 1378)"/></g></g></g></g></svg>