<?xml version="1.0" encoding="UTF-8"?>
<!DOCTYPE svg PUBLIC "-//W3C//DTD SVG 1.1//EN" "http://www.w3.org/Graphics/SVG/1.1/DTD/svg11.dtd">
<!-- Creator: CorelDRAW 2021 (64-Bit) -->
<svg xmlns="http://www.w3.org/2000/svg" xml:space="preserve" width="5.33266in" height="3.772in" version="1.1" shape-rendering="geometricPrecision" text-rendering="geometricPrecision" image-rendering="optimizeQuality" fill-rule="evenodd" clip-rule="evenodd"
viewBox="0 0 1843.08 1303.69"
 xmlns:xlink="http://www.w3.org/1999/xlink"
 xmlns:xodm="http://www.corel.com/coreldraw/odm/2003">
 <g id="Layer_x0020_1">
  <metadata id="CorelCorpID_0Corel-Layer"/>
  <g id="_1899536660560">
   <path fill="#000000" d="M1317.52 1151.93c0,-44.84 2.41,-69.02 35.03,-101.76 41.47,-41.62 100.55,-50.86 149.88,-25.55 113.56,58.25 82.56,227.68 -50.09,240.58 -37.01,3.6 -69.93,-13.1 -91.25,-30.85 -18.77,-15.63 -43.57,-49.36 -43.57,-82.42zm-957.54 115.19c-65.52,0 -129.59,-55.28 -129.59,-115.19 0,-44.84 2.41,-69.02 35.03,-101.76 55.23,-55.44 140.02,-49.28 185.54,-0.01 79.82,86.4 8.58,216.96 -90.97,216.96zm1411.11 -183.59l36 0 0 36 -36 0 0 -36zm-161.99 0l122.39 0 0 36 -122.39 0 0 -36zm-554.36 -72l79.19 0 0 107.99 -79.19 0 0 -107.99zm-104.39 0l68.4 0 0 107.99 -68.4 0 0 -107.99zm-115.19 0l79.19 0 0 107.99 -79.19 0 0 -107.99zm935.94 -86.39l36 0 0 118.79 -36 0 0 -118.79zm-453.57 104.39l0 -82.8 190.79 0c10.16,0 26.89,24.54 37.53,38.06 6.55,8.33 10.5,11.68 16.64,19.36 7.75,9.69 10.62,10.62 10.62,28.97 -9.91,-7.26 -3.39,-6.13 -24.03,-22.77 -10.42,-8.41 -14.95,-12.6 -27.49,-19.31 -47.46,-25.37 -103,-24.41 -150.16,-1.2 -41.49,20.42 -34.37,26.6 -53.91,39.69zm-1133.93 89.99l-28.8 0 0 -172.79 1123.13 0 0 172.79 -107.99 0c0,-38.12 4.2,-110.51 -3.6,-143.99 -30.2,-7.03 -333.38,-7.03 -363.58,0 -7.8,33.48 -3.6,105.87 -3.6,143.99l-277.18 0c-3.36,-40.38 -27.56,-81.32 -52.41,-102.38 -16.24,-13.75 -26.71,-22.87 -47.72,-31.47 -98.59,-40.36 -197.66,16.65 -223.48,105.42 -4.07,13.98 -0.93,28.43 -14.77,28.43zm1133.93 -1072.73l110.07 48.32c105.24,43.94 157.85,91.48 214.66,184.92 5.82,9.57 23.49,46.82 24.45,58.35l-349.18 0 0 -46.8 104.39 0 0 -36 -104.39 0 0 -208.79zm-93.59 244.78l54 0 0 359.98 39.6 0 0 -277.18 359.98 0c10.68,0 8.72,4.38 12.62,12.58l23.89 55.3c10.16,24.63 21.71,49.71 32.4,75.59 11.34,27.47 60.68,129.73 60.68,151.7l0 215.99c-92.18,0 -75.59,-23.48 -75.59,158.39l-122.39 0c0,-56.27 -1.28,-46.68 -60.36,-116.03 -1.53,-1.8 -11.53,-13.3 -11.72,-13.48 -3.06,-2.85 -0.72,-2.05 -6.17,-4.63 -14.48,-6.85 -183.45,-2.65 -213.33,-2.65l0 -183.59 -39.6 0 0 183.59 -107.99 0 0 -871.14 107.99 0 0 219.59 -54 0 0 36zm-1223.92 -255.58l993.54 0 0 871.14 -993.54 0 0 39.6 115.19 0 0 183.59c0,36.09 41.64,28.8 79.19,28.8 0,20.6 7.93,41.74 15.88,56.12 55.74,100.81 185.1,116.27 262.33,42.1 20.81,-19.98 46.37,-62.21 49.37,-98.22l759.55 0c0,20.6 7.93,41.74 15.88,56.12 55.74,100.81 185.1,116.27 262.33,42.1 20.81,-19.98 46.37,-62.21 49.37,-98.22 42,0 83.99,0 125.99,0 29.32,0 107.99,10.47 107.99,-18l0 -489.57c0,-13.93 -158.68,-380.24 -183.53,-417.63 -90.74,-136.55 -181,-154.01 -310.85,-214.72 -14.14,-6.61 -39.5,-19.21 -56.39,-19.21l-143.99 0c-8.43,0 -14.4,5.97 -14.4,14.4l0 892.74 -100.79 0 0 -885.54c0,-9.72 -1.72,-9.93 -3.6,-18 -8.07,-1.88 -8.28,-3.6 -18,-3.6l-1011.54 0 0 36z"/>
   <path fill="#000000" d="M-0 122.39l903.54 0 0 701.95 -176.39 0 0 36 197.99 0c8.43,0 14.4,-5.97 14.4,-14.4l0 -741.55c0,-9.72 -1.72,-9.93 -3.6,-18 -8.07,-1.88 -8.28,-3.6 -18,-3.6l-917.94 0 0 39.6z"/>
   <path fill="#000000" d="M1447.11 536.37l0 -100.79 176.39 0 93.58 190.8c-53.58,-0.01 -110.32,-13.48 -162.07,-17.91 -54.83,-4.69 -107.89,-2.71 -107.89,-72.09zm-36 -125.99l0 143.99c0,30.73 21.7,57.21 41.05,70.55 29.71,20.48 153.85,29.07 196.54,33.85 167.27,18.72 147.01,38.44 26.4,-202.79 -7.33,-14.67 -24.66,-60 -40.8,-60l-201.59 0c-11.05,0 -21.6,3.33 -21.6,14.4z"/>
   <polygon fill="#000000" points="-0,860.34 655.16,860.34 655.16,824.35 -0,824.35 "/>
   <path fill="#000000" d="M1403.91 1141.13c0,-50.68 54.61,-51.32 71.26,-31.66 23.73,28.02 5.66,67.13 -29,69.62 -21.01,1.51 -42.26,-14.68 -42.26,-37.96zm-39.6 -7.2c0,112.94 158.39,104.03 158.39,10.8 0,-25.51 -4.51,-47.45 -24.57,-65.43 -56.7,-50.83 -133.82,0.44 -133.82,54.63z"/>
   <path fill="#000000" d="M356.38 1180.72c-44.82,0 -65.65,-82.8 10.8,-82.8 6.14,0 18.97,9.49 22.34,13.66 23.96,29.65 -1.86,69.13 -33.13,69.13zm-79.19 -46.8c0,23.79 8.04,42.28 19.35,56.25 41.96,51.82 139.04,23.77 139.04,-45.45 0,-25.51 -4.51,-47.45 -24.57,-65.43 -30,-26.89 -75.99,-28.82 -107.87,1.39 -11.3,10.7 -25.95,32.9 -25.95,53.24z"/>
   <polygon fill="#000000" points="1429.11,849.55 1522.7,849.55 1522.7,813.55 1429.11,813.55 "/>
  </g>
 </g>
</svg>
