<?xml version="1.0" encoding="UTF-8"?>
<!DOCTYPE svg PUBLIC "-//W3C//DTD SVG 1.1//EN" "http://www.w3.org/Graphics/SVG/1.1/DTD/svg11.dtd">
<!-- Creator: CorelDRAW 2021 (64-Bit) -->
<svg xmlns="http://www.w3.org/2000/svg" xml:space="preserve" width="5.33266in" height="5.33266in" version="1.1" shape-rendering="geometricPrecision" text-rendering="geometricPrecision" image-rendering="optimizeQuality" fill-rule="evenodd" clip-rule="evenodd"
viewBox="0 0 650.13 650.13"
 xmlns:xlink="http://www.w3.org/1999/xlink"
 xmlns:xodm="http://www.corel.com/coreldraw/odm/2003">
 <g id="Layer_x0020_1">
  <metadata id="CorelCorpID_0Corel-Layer"/>
  <path fill="#FCD5A6" d="M135.78 273.01c0,-12.23 5.75,-17.11 17.86,-17.11l50.79 0c12.24,0 17.21,5.21 17.21,17.11l0 237.45c0,12.35 -4.5,17.78 -17.21,17.78l-50.79 0c-13.1,0 -17.86,-4.65 -17.86,-17.78l0 -237.45zm223.06 2.02c27.77,-30.07 96.98,-29.71 128.05,-6.39 42.04,31.55 40.02,89.45 40.02,154.2 0,116.94 10.41,105.4 -40.58,105.4 -54.47,0 -47.5,5.98 -47.5,-50.8 0,-16.08 0,-32.17 0,-48.25 0,-27.39 3.48,-65.35 -9.91,-86.07 -14.4,-22.27 -50.04,-23.52 -67.29,-3.05 -18.02,21.38 -15.61,49.79 -15.61,81.5 0,115.4 10.45,106.67 -38.73,106.67 -11.83,0 -37.34,2.97 -43.79,-4.47 -6.34,-7.31 -3.19,-79.03 -3.19,-94.58l-0 -146.03c-0.02,-21.36 -1.62,-27.33 21.59,-27.19 70.47,0.41 62.76,-5.99 64.48,32.39l12.47 -13.34zm-189.39 -152.1c33.1,-5.97 58.53,17.43 63.68,43.81 6.56,33.56 -17.56,60.36 -44.36,65.03 -72.31,12.61 -91.91,-95.76 -19.33,-108.84zm-169.44 -40.39l0 485.06c0,41.22 41.31,82.54 82.54,82.54l485.06 0c41.22,0 82.54,-41.31 82.54,-82.54l0 -485.06c0,-41.22 -41.31,-82.54 -82.54,-82.54l-485.06 0c-41.22,0 -82.54,41.31 -82.54,82.54z"/>
 </g>
</svg>
