<?xml version="1.0" encoding="UTF-8"?>
<!DOCTYPE svg PUBLIC "-//W3C//DTD SVG 1.1//EN" "http://www.w3.org/Graphics/SVG/1.1/DTD/svg11.dtd">
<!-- Creator: CorelDRAW 2021 (64-Bit) -->
<svg xmlns="http://www.w3.org/2000/svg" xml:space="preserve" width="4.08456in" height="5.41436in" version="1.1" shape-rendering="geometricPrecision" text-rendering="geometricPrecision" image-rendering="optimizeQuality" fill-rule="evenodd" clip-rule="evenodd"
viewBox="0 0 921.11 1220.99"
 xmlns:xlink="http://www.w3.org/1999/xlink"
 xmlns:xodm="http://www.corel.com/coreldraw/odm/2003">
 <g id="Layer_x0020_1">
  <metadata id="CorelCorpID_0Corel-Layer"/>
  <g id="_1881267743408">
   <path fill="#3798DD" d="M-0 443.73c0,-114.66 54.52,-228.62 134.82,-308.92l0.13 -0.13 29.59 -27.26c9.92,-8.84 20.49,-16.11 31.08,-24.04 10.64,-7.96 22.45,-15.29 33.9,-22.05 11.47,-6.77 23.85,-13.75 36.1,-18.99 32.66,-13.99 65.5,-26.75 100.42,-33.84 36.32,-7.37 73.62,-8.5 110.57,-8.5 98.6,0 206.45,44.1 280.33,108.48l0.14 0.12 42.51 40.18 0.11 0.11c4.94,4.99 8.61,10.48 13.22,15.65 8.84,9.92 16.11,20.49 24.04,31.08 7.96,10.64 15.29,22.45 22.05,33.9 6.77,11.47 13.75,23.85 18.99,36.1 70.1,163.71 48.02,293.16 -18.42,452.77 -14.06,33.78 -31.57,66.42 -50.14,97.92 -18.44,31.27 -38.23,61.72 -58.31,91.95 -18.11,27.27 -37.62,52.81 -58.38,78.08 -18.84,22.93 -38.08,45.41 -56.14,68.98 -5.12,6.68 -11.38,12.16 -16.43,18.78 -5.77,7.55 -12.44,13.15 -18.79,20.01 -2.99,3.23 -5.17,6.77 -7.99,10.14l-0.26 0.31 -82.39 82.6c-15.11,15.15 -29.42,33.83 -52.91,33.83 -9.59,0 -22.72,-10.76 -29.81,-16.61 -12.64,-10.44 -24.71,-22.06 -36.37,-33.57 -11.96,-11.81 -23.68,-23.87 -35.31,-36.01 -7.24,-7.55 -14.43,-15.38 -21.86,-22.73l-0.23 -0.22 -69.5 -78.92c-54.35,-61.72 -103.2,-130.89 -144.67,-201.89 -21.29,-36.45 -40.93,-74.01 -58.21,-112.53 -16.2,-36.12 -30.51,-73.42 -41.39,-111.5 -7.64,-26.76 -14.03,-53.38 -17.21,-81.06 -3.12,-27.22 -3.27,-54.83 -3.27,-82.2zm459.22 694.65l126.42 -132.04c14.96,-15.62 28.94,-32.83 42.27,-49.85 16.37,-20.89 32.12,-42.32 47.46,-63.98 15.14,-21.38 29.91,-43.07 44.17,-65.05 11.25,-17.34 22.42,-35.05 32.51,-53.09 8.09,-14.46 16.62,-28.66 24.01,-43.51 7.5,-15.08 14.77,-30.23 21.4,-45.71 6.62,-15.46 12.72,-31.18 18.89,-46.83 42.45,-107.58 49.33,-240.04 -2.7,-345.58 -7.7,-15.63 -15.8,-30.9 -25.53,-45.37 -9.25,-13.75 -19.75,-26.84 -29.88,-39.96 -9.59,-12.42 -22.36,-24.41 -34.05,-34.86 -12.43,-11.11 -25.53,-21.92 -38.94,-31.81 -17.89,-13.19 -37.73,-24.23 -57.65,-34.05 -21.17,-10.43 -45.5,-18.56 -68.28,-24.59 -25.66,-6.79 -53.82,-12.01 -80.35,-12.01 -32.18,0 -65.07,0.59 -96.78,6.61 -31.39,5.96 -60.61,17.26 -89.7,30.21 -79.48,35.37 -147.63,108.42 -185.8,185.84 -31.54,63.98 -36.6,118.15 -36.6,188.56 0,17.59 2.3,35.65 5.35,52.95 3.47,19.66 8.16,39.19 13.58,58.4 5.2,18.44 11.13,36.74 17.81,54.7 5.26,14.14 11.07,28.49 17.86,41.97 4.03,7.98 6.95,16.37 10.94,24.34 19.71,39.39 41.22,77.53 65.04,114.58 23.84,37.07 49.68,72.71 76.43,107.72l60.22 73.04c9.59,10.32 18.98,20.86 28.4,31.34 12.43,13.82 24.88,27.62 37.48,41.29 12.02,13.05 24.17,26.06 36.72,38.61 4.86,4.86 9.8,9.69 14.91,14.29 1.41,1.27 2.87,2.58 4.38,3.85zm-259.57 -680.56c0,-140.24 117.94,-258.18 258.18,-258.18 69.98,0 136.64,27.04 186.38,76.32 48.62,48.17 76.49,113.2 76.49,181.86 0,69.95 -27.17,136.57 -76.42,186.29 -48.13,48.58 -113.13,76.59 -181.76,76.59 -146.72,0 -262.88,-116.15 -262.88,-262.88zm70.1 4.7c0,102.07 86.01,188.08 188.08,188.08 51.4,0 100.42,-19.44 137.06,-55.63 35.51,-35.07 55.72,-82.4 55.72,-132.46 0,-51.4 -19.44,-100.42 -55.63,-137.06 -35.07,-35.51 -82.4,-55.72 -132.46,-55.72 -108.82,0 -192.78,83.96 -192.78,192.78z"/>
  </g>
  <g id="_1881267741920">
   <path fill="#3798DD" d="M460.17 1150.71c-24.59,-16.46 -102.12,-105.89 -129.77,-135.64l-60.5 -73.38c-57.64,-75.43 -100.1,-139.19 -142.49,-223.91 -4.45,-8.89 -6.44,-15.43 -10.92,-24.31 -22.72,-45.03 -55.6,-146.42 -55.6,-212.16 0,-74.21 5.7,-128.03 37.55,-192.63 39.25,-79.62 109.1,-154.04 190.31,-190.18 72.12,-32.1 109.07,-37.61 190.22,-37.61 51.87,0 117.78,20.33 152.7,37.55 20.55,10.13 41.11,21.66 59.05,34.9 22.63,16.7 58.07,46.77 74.81,68.46 25.94,33.6 35.88,45.3 56.38,86.89 53.19,107.9 46.42,243 3,353.04 -15.71,39.81 -21.41,54.65 -40.62,93.26 -7.6,15.28 -15.69,28.66 -24.21,43.9 -32.42,57.98 -117.66,181.2 -167.8,233.84l-132.12 137.99zm-450.96 -706.97c0,66.02 1.86,96.8 20.12,160.73 40.88,143.09 140.92,308.46 242.33,422.36l69.29 78.69c15.1,14.93 98.38,106.26 116.87,106.26 18.98,0 30.64,-15.37 46.39,-31.12l82.1 -82.31c3.95,-4.73 3.87,-5.71 8.3,-10.49 6.91,-7.47 12.13,-11.35 18.23,-19.35 5.59,-7.32 10.84,-11.48 16.44,-18.79 38.91,-50.78 73.26,-84.96 114.16,-146.55 38.09,-57.35 80.84,-123.98 107.63,-188.32 65.17,-156.55 87.9,-283.44 18.46,-445.6 -8.04,-18.77 -27.87,-51.97 -39.95,-68.1 -8.51,-11.37 -14.12,-19.9 -23.54,-30.48 -5.25,-5.89 -7.3,-9.65 -12.89,-15.3l-42.26 -39.95c-70.41,-61.37 -175.81,-106.22 -274.28,-106.22 -91.19,0 -129.66,8.32 -207.37,41.6 -18.77,8.04 -51.97,27.87 -68.1,39.95 -11.37,8.51 -19.9,14.12 -30.48,23.54l-29.34 27.03c-78.12,78.12 -132.12,189.67 -132.12,302.4z"/>
   <path fill="#3798DD" d="M260.53 462.52c0,-113.9 88.09,-201.99 201.99,-201.99 107.64,0 197.3,88.56 197.3,201.99 0,107.64 -88.56,197.3 -201.99,197.3 -107.16,0 -197.3,-90.14 -197.3,-197.3zm-51.67 -4.7c0,141.67 112.06,253.67 253.67,253.67 135.28,0 248.97,-112.41 248.97,-253.67 0,-135.54 -112.15,-248.97 -253.67,-248.97 -135.15,0 -248.97,113.82 -248.97,248.97z"/>
  </g>
 </g>
</svg>
