<?xml version="1.0" encoding="UTF-8"?>
<!DOCTYPE svg PUBLIC "-//W3C//DTD SVG 1.1//EN" "http://www.w3.org/Graphics/SVG/1.1/DTD/svg11.dtd">
<!-- Creator: CorelDRAW 2021 (64-Bit) -->
<svg xmlns="http://www.w3.org/2000/svg" xml:space="preserve" width="3.42252in" height="5.68938in" version="1.1" shape-rendering="geometricPrecision" text-rendering="geometricPrecision" image-rendering="optimizeQuality" fill-rule="evenodd" clip-rule="evenodd"
viewBox="0 0 820.07 1363.23"
 xmlns:xlink="http://www.w3.org/1999/xlink"
 xmlns:xodm="http://www.corel.com/coreldraw/odm/2003">
 <g id="Layer_x0020_1">
  <metadata id="CorelCorpID_0Corel-Layer"/>
  <g id="_1837394328576">
   <path fill="#3798DD" d="M69.23 1216.79l0 -1070.35c0,-44.84 29.19,-77.21 63.9,-77.21l553.81 0c34.29,0 63.9,32.2 63.9,77.21l0 1070.35c0,22.17 -5.4,40.74 -16.56,52.67 -10.61,11.36 -26.56,24.54 -47.35,24.54l-553.81 0c-34.29,0 -63.9,-32.2 -63.9,-77.21zm-69.23 -1081l0 1091.65c0,39.4 18.89,73.56 39.23,93.9 14.05,14.06 20.9,18.68 38.05,28.51 12.37,7.09 33.63,13.38 53.18,13.38l559.14 0c67.38,0 130.47,-64.43 130.47,-135.79l0 -1091.65c0,-71.36 -63.09,-135.79 -130.47,-135.79l-559.14 0c-67.38,0 -130.47,64.43 -130.47,135.79z"/>
   <path fill="#3798DD" d="M340.81 1182.18c0,60.29 76.97,89.47 117.83,48.6 63.93,-63.94 -31.89,-163.48 -98.62,-95.95 -10.49,10.62 -19.21,27.44 -19.21,47.35z"/>
   <path fill="#3798DD" d="M364.77 143.78c0,26.2 13.96,39.94 45.26,39.94 34.12,0 127.88,6.04 145.88,-8.55 25.28,-20.5 16.45,-63.34 -31.39,-63.34l-119.82 0c-19.22,0 -39.94,13.42 -39.94,31.95z"/>
   <path fill="#3798DD" d="M250.28 146.44c0,48.67 69.23,44.66 69.23,2.66 0,-50.35 -69.23,-43.6 -69.23,-2.66z"/>
  </g>
 </g>
</svg>
