<?xml version="1.0" encoding="UTF-8"?>
<!DOCTYPE svg PUBLIC "-//W3C//DTD SVG 1.1//EN" "http://www.w3.org/Graphics/SVG/1.1/DTD/svg11.dtd">
<!-- Creator: CorelDRAW 2021 (64-Bit) -->
<svg xmlns="http://www.w3.org/2000/svg" xml:space="preserve" width="0.375177in" height="0.375106in" version="1.1" shape-rendering="geometricPrecision" text-rendering="geometricPrecision" image-rendering="optimizeQuality" fill-rule="evenodd" clip-rule="evenodd"
viewBox="0 0 1173.68 1173.45"
 xmlns:xlink="http://www.w3.org/1999/xlink"
 xmlns:xodm="http://www.corel.com/coreldraw/odm/2003">
 <g id="Layer_x0020_1">
  <metadata id="CorelCorpID_0Corel-Layer"/>
  <path fill="#1C1B17" d="M485.75 684.34l201.64 0c89.83,0 151.99,29.32 202.11,69.78 23.36,18.86 46.68,47.81 62.73,74.75 10.22,17.17 42.89,77 28.81,96.97 -27.86,39.51 -107.52,98.37 -153.08,122.09 -150.16,78.18 -329.71,77.74 -480.74,1.02 -51.59,-26.2 -119.53,-78.27 -153.28,-121.83 -8.2,-10.59 -8.5,-8.95 -4.89,-22.75 2.34,-8.93 5.09,-16.41 8.34,-25.69 16.29,-46.49 48,-92.26 84.56,-123.19 48.64,-41.14 115.06,-71.15 203.8,-71.15zm-94.7 -250.52c0,-39.74 0.67,-72.99 14.32,-107.88 41.64,-106.47 149.27,-158.31 261.15,-112.61 66.29,27.08 115.56,101.24 115.56,186.89 0,72.9 0.71,132.77 -54.14,190.25 -76.99,80.66 -203.77,81.88 -284.25,-4.62 -31.68,-34.05 -52.65,-86.94 -52.65,-152.03zm-391.05 131.38c0,125.5 12.22,164.87 55.42,271.46 6.6,16.31 15.44,30.85 24.16,46.11 26.52,46.36 54.41,80.68 92.26,118.53 49.19,49.19 98.92,84.74 164.16,116.91 115.23,56.79 266.25,70.49 395.43,37.88 93.21,-23.54 159.82,-61.46 231.87,-119.46 33.41,-26.89 76.88,-74.97 101.63,-109.18 14.83,-20.49 42.43,-65.55 51.93,-88.59 16.97,-41.16 25.78,-56.33 37.34,-103.2 24.21,-97.99 26.95,-195.26 1.87,-293.94 -9.72,-38.29 -22.67,-69.94 -37.03,-103.49 -20.86,-48.72 -50.5,-88.74 -82.41,-128.38 -97.46,-121.08 -268.89,-209.84 -428.68,-209.84 -118.62,0 -168.65,10.83 -269.73,54.11 -26.5,11.36 -65.19,35.15 -88.96,51.58 -50.3,34.74 -107.94,93.14 -142.33,141.78 -18.33,25.91 -38.41,58.32 -51.91,88.63 -27.07,60.81 -55.03,141.77 -55.03,229.09z"/>
 </g>
</svg>
