<?xml version="1.0" encoding="UTF-8"?>
<!DOCTYPE svg PUBLIC "-//W3C//DTD SVG 1.1//EN" "http://www.w3.org/Graphics/SVG/1.1/DTD/svg11.dtd">
<!-- Creator: CorelDRAW 2021 (64-Bit) -->
<svg xmlns="http://www.w3.org/2000/svg" xml:space="preserve" width="5.328in" height="5.31578in" version="1.1" shape-rendering="geometricPrecision" text-rendering="geometricPrecision" image-rendering="optimizeQuality" fill-rule="evenodd" clip-rule="evenodd"
viewBox="0 0 2883.22 2876.6"
 xmlns:xlink="http://www.w3.org/1999/xlink"
 xmlns:xodm="http://www.corel.com/coreldraw/odm/2003">
 <g id="Layer_x0020_1">
  <metadata id="CorelCorpID_0Corel-Layer"/>
  <g id="_1899528574304">
   <path fill="#000000" d="M2055.09 2388.51l135.4 0c0,51.23 -9.89,253.63 9.08,286.86 45.72,10.35 62.3,-31.42 112.81,-96.23 33.69,13.38 45.39,46.44 66.25,73.82 28.87,37.9 65.72,41.64 65.72,-22.29l0 -242.15 134 1.08 -0.02 424.13c-75.86,6 -421.06,1.48 -523.27,1.42l0.03 -426.64zm-1214.7 230.62c-16.69,-98.07 74.03,-213.56 196.06,-228.64 121.36,-14.99 215.81,89.22 227.54,195.11 13.22,119.29 -90.52,218.17 -195.94,227.21 -125.32,10.75 -209.38,-86.21 -227.66,-193.68zm487.45 50.42l-1.88 -135.46 405.34 0.64c91.68,8.83 89.05,121.24 4.9,133.61l-408.37 1.21zm1036.47 -152.08c-7.34,-13.29 -24.86,-43.03 -49.21,-41.53 -22.45,1.38 -20.24,11.52 -29.15,16.22 -13.48,7.12 -12.99,1.34 -36.25,-3.91l0 -99.74 136.85 0c-2.48,26.88 -5.59,108.09 -22.24,128.96zm209.7 -614.8l5.85 47.57c-0.87,95.37 4.86,315.19 -1.48,379.17 -8.13,0.79 -500.5,10.31 -523.29,-4.47l0.01 -422.24 135.48 0c-0.05,36.89 -10.06,272.47 12.26,286.49 42.21,26.52 67.69,-64.14 111.72,-94.77 59.89,24.6 48.56,114.11 123.62,94.04 12.97,-44.76 6.13,-220.87 6.13,-282.16l129.71 -3.64zm-1346.32 -97.99l83.55 0.2c167.01,-3.63 163.79,-14.88 192.3,91.25 13.06,48.62 29.63,91.4 41.22,140.59l-317.07 0 0 -232.04zm1021.99 98.03l135.48 0 -1.2 98.35 -29.06 9.92c-17.82,-9.53 -25.6,-31.34 -54.21,-17.6 -37.6,18.06 7.95,22.45 -50.41,8.38l-0.58 -22.67 -0.02 -76.38zm-1160.79 429.47l-104.58 -0.28c-10.06,-118.69 0.5,-504.47 -1.3,-681.58 -0.31,-30.49 -3.04,-28.63 6.04,-39.98 99.24,-1.79 199.74,-0.17 299.14,-0.32 49.97,-0.07 89.79,5.46 119.69,30.19 22.53,18.63 46.82,61.72 38.88,105.37 -45.21,0 -243.9,-9.31 -266.4,9.32 -18.49,16.04 -12.03,32.52 -11.87,74.25 1.19,313.25 -57.26,268.23 240.78,268.23 414.34,0 343.02,-51.78 343.02,377.58 -133.64,0 -267.29,-0.24 -400.92,0.23 -105.9,0.37 -116.02,-149.59 -262.46,-143.01zm-1023.14 -1293.88l28.82 -7.7c19.6,18.14 34.55,44.77 51.53,66.7 35.9,46.38 126.02,154.65 140.31,207.03 -16.53,9.5 -31.92,6.02 -53.44,5.89l-171.57 -1.43c-1.74,-17.6 -8.26,-248.83 4.36,-270.5zm784.55 122.69c8.31,-17.61 19.04,-30.33 29.24,-46.09 15.97,-24.69 11.92,-39.65 30.95,-39.65l1667.52 1.07 0.37 84.01 -1728.08 0.65zm-334.79 270.1c-49.61,-30.31 -73.24,-72.08 -97.99,-97.98l-90.46 -99.8c-84.38,-99.67 -203.76,-253.95 -246.9,-387.37 -46.96,-145.22 18.15,-303.43 91.53,-386.92 326.41,-371.42 902.42,-41.01 780.08,393.79 -34.28,121.84 -127.68,238.1 -190.97,316.33 -30.39,37.56 -198.3,246.82 -245.28,261.96zm864.12 -1338.14c55.7,-26.14 57.92,-33.53 116.98,-5.8 71.54,33.6 131.95,71.3 203.86,107.1 137,68.2 274.32,141.23 410.28,212.66 135.63,71.25 276.55,141.07 411.32,211.43 67.9,35.45 137.64,73.95 208.69,108.28 30.59,14.78 83.49,28.75 90.22,65.33l0.98 2023.32 -183.04 -1.53c0,-299.36 0,-598.72 0,-898.08 0,-114.09 7.76,-841.49 -5.4,-890.18 -57.65,-23.05 -709.59,-9.37 -832.15,-9.37 -281.56,0 -563.12,0 -844.67,0 12.75,-67.62 47.27,-105.48 64.04,-169.38 71.54,-272.59 -142.97,-452.32 -156.56,-487.93l515.45 -265.84zm-591.33 1136.13c6.87,-10.92 -13.97,-11.3 50.1,-10.62l841.88 0.03c94.43,0 824.39,-5.16 897.74,1.24 8.25,30.19 8.25,594.76 0,626.17l-565.65 0.05c-26.54,18.33 -16.41,74.89 -16.41,110.07 0.02,157.02 -6.97,873.29 5.77,912.51 32.67,10.39 836.76,11.03 873.95,0.35 12.84,-44.71 5.42,-789.6 5.42,-901.33l0 -1135.94c0.05,-84.85 14.6,-94.57 -83.03,-143.06l-604.32 -307.22c-104.26,-52.12 -198.41,-105 -297.6,-157.92 -99.18,-52.92 -199.4,-102.83 -295.94,-153.66 -179.78,-94.65 -138.75,-91.81 -316.8,1.47l-447.69 233.19c-62.41,31.12 -46.96,-7.73 -158.91,-43.57 -237.08,-75.91 -497.45,35.62 -611.51,247.54 -76.78,142.65 -63.01,216.69 -63.01,392.42 0,66.49 -7.02,417.57 3.62,450.48 24.72,29.92 95.94,16.61 134.79,16.61 51.38,0 104.57,1.33 155.7,-0.58 95.4,-3.56 79.09,23.61 184.54,121.7 44.3,41.21 56.65,18.03 89.3,-14.46 135.04,-134.35 53.1,-106.67 356.08,-106.67l0.05 916.8c0.72,130.74 -59.61,76.35 -116.82,189.88 -193.41,4.42 -412.93,0.37 -611.19,0.37 -38.51,0 -180.31,-9.97 -193.42,15 -32.11,61.15 113.56,44.15 153.06,44.15l621.3 0 1.24 135.46c-106.6,-0 -727.83,-10.26 -772.49,6.87l-3.67 42.84c61.5,24.56 680.19,7.16 805.2,9.8 23.13,44.08 57.35,76.91 93.46,102.29 77.13,54.2 210.36,62.79 304.35,-4.53 163.51,-117.11 -71.7,-101.32 467.12,-98.11 65.9,0.39 110.24,-0.67 149.03,-35.49 88.42,-79.35 -6.86,-194.17 -9.26,-202.36 -5.36,-18.32 -2.81,-69.01 -2.81,-90.85 0.02,-63.43 -0.11,-126.86 0.02,-190.29 0.39,-194.85 -90.09,-161.6 -200.42,-174.78 -36.93,-69.95 -79.6,-321.74 -137.96,-413.78 -44.44,-70.1 -107.12,-70.27 -208.01,-70.25 -92.49,0.02 -184.97,0 -277.46,0 -10.82,-74.12 11.85,-167.84 -10.11,-234.96 -75.28,-19.25 -159.09,2.42 -227.81,-9.31 3.45,-14.6 5.95,-28.55 14.57,-41.73 12.1,-18.49 12.06,-11.43 23.99,-35.83z"/>
   <path fill="#000000" d="M485.55 595.68c96.62,-21.86 173.81,46.56 192.58,119.48 24.64,95.71 -51.57,179.9 -120.4,198.64 -201.2,54.78 -297.03,-267.25 -72.18,-318.12zm-187.85 212.86c35.24,168.78 285.42,247.62 406.58,73.56 113.1,-162.49 -30.82,-394.71 -238.88,-348.42 -105.63,23.5 -196.26,138.05 -167.69,274.86z"/>
   <path fill="#000000" d="M1279.52 635.56c-35.34,-213.81 293.3,-265.53 323.54,-50.61 31.08,220.87 -290.46,250.72 -323.54,50.61zm-58.57 23.06c9.84,64.46 55.61,106.13 89.56,133.4 86,69.07 230.73,57.33 314.04,-50.69 35.65,-46.23 49.8,-106.52 38.14,-180.38 -16.16,-102.36 -127.27,-196.87 -270.35,-173.24 -102.9,16.99 -193.11,128.73 -171.38,270.91z"/>
   <path fill="#000000" d="M1116.41 2624.89c-28.38,78.41 -161.7,35.17 -125.74,-49.02 29.43,-68.91 156.59,-36.2 125.74,49.02zm-98.58 -145.97c-157.28,42.69 -94.79,290.46 70.24,245.58 57.12,-15.54 106.62,-82.68 88,-160.71 -13.19,-55.24 -85.31,-104.67 -158.23,-84.87z"/>
   <path fill="#000000" d="M48.43 2242.9l403.63 0c66.07,0 64.31,-59.11 5.77,-59.11l-415.17 0c-59.16,0 -56.19,59.11 5.77,59.11z"/>
   <path fill="#000000" d="M6.97 1992.41c36.68,14.09 298.72,6.26 375.94,6.99 18.88,0.18 45.08,3.5 58.69,-7.88 11.57,-9.67 10.77,-33.17 1.03,-42.98 -18.08,-18.19 -303.61,-8.01 -371.27,-8.53 -50.23,-0.38 -77.84,-4.71 -64.39,52.38z"/>
   <path fill="#000000" d="M7.71 1749.52c30.18,11.04 354.76,10.93 388.86,1.09 16.34,-58.08 -14.44,-54.51 -65.53,-54.19l-253.82 0.03c-51.26,-0.29 -85.84,-6.73 -69.51,53.08z"/>
   <path fill="#000000" d="M2012.35 1845.94l565.65 -0.05c8.25,-31.4 8.25,-595.98 0,-626.17 -73.35,-6.41 -803.32,-1.24 -897.74,-1.24l-841.88 -0.03c-64.08,-0.68 -43.23,-0.3 -50.1,10.62 37.19,-12.13 1702.8,-4.65 1788.22,-4.65l0 615.62 -564.14 5.9z"/>
   <path fill="#000000" d="M2055.08 2324.93c22.79,14.78 515.17,5.25 523.29,4.47 6.34,-63.98 0.62,-283.8 1.48,-379.17l-5.85 -47.57 0 422.27 -518.93 0z"/>
   <path fill="#000000" d="M1088.88 2332.17c-18.57,-12.87 -73,-4.71 -99.85,-4.71l0 -717.14c-9.07,11.34 -6.34,9.49 -6.04,39.98 1.8,177.11 -8.76,562.89 1.3,681.58l104.58 0.28z"/>
   <path fill="#000000" d="M286.39 1304.32l-220.65 0 0 -266.03c-12.62,21.67 -6.11,252.89 -4.36,270.5l171.57 1.43c21.52,0.13 36.91,3.6 53.44,-5.89z"/>
  </g>
 </g>
</svg>
