<?xml version="1.0" encoding="UTF-8"?>
<!DOCTYPE svg PUBLIC "-//W3C//DTD SVG 1.1//EN" "http://www.w3.org/Graphics/SVG/1.1/DTD/svg11.dtd">
<!-- Creator: CorelDRAW 2021 (64-Bit) -->
<svg xmlns="http://www.w3.org/2000/svg" xml:space="preserve" width="12.7822in" height="12.7822in" version="1.1" shape-rendering="geometricPrecision" text-rendering="geometricPrecision" image-rendering="optimizeQuality" fill-rule="evenodd" clip-rule="evenodd"
viewBox="0 0 6876.26 6876.26"
 xmlns:xlink="http://www.w3.org/1999/xlink"
 xmlns:xodm="http://www.corel.com/coreldraw/odm/2003">
 <g id="Layer_x0020_1">
  <metadata id="CorelCorpID_0Corel-Layer"/>
  <g id="_2099831161168">
   <path fill="#FCD5A6" d="M3881.33 3075.52l827.29 1200.67c43.41,65.23 78.48,110.54 120.96,174.5 41.11,61.9 72.26,110 114.78,167.25l830.63 1210.76 -1396.74 0c-15.1,-56.54 -115.05,-181.19 -153.22,-236.26l-956.08 -1394.2c-31.22,-47.13 -53.7,-73.88 -83.46,-117.99 -31.26,-46.32 -42.49,-90.48 -96.54,-104.92 -18.28,68.45 -180.82,218.8 -237.72,286.06 -22.84,27 -22.01,32.11 -47.7,59.74l-297.76 346.89c-21.7,27.89 -29.68,32.13 -51.18,56.26l-893.63 1040.31c-32.2,33.26 -30.96,17.74 -43.34,64.1l-416.34 0 392.61 -453.49c26.96,-30.26 30.8,-42.31 60.65,-73.65 120.56,-126.59 221.92,-269.58 342.48,-396.18 28.35,-29.76 29.56,-37.16 54.38,-66.49l976.38 -1132.16 -337.8 -494.87c-41.8,-56.28 -71.81,-108.76 -113.34,-168.69l-795.34 -1152.03c-40.21,-59.22 -70.45,-110.65 -113.74,-168.3 -68.03,-90.59 -434.49,-606.51 -452.85,-675.28l1383.31 0c17.25,64.6 658.84,967.82 743.95,1095.98 123.4,185.8 358.62,488.16 451.33,663.37 45.73,-30.62 73.81,-76.45 110.58,-117.73l209.77 -246.85c19,-23.58 31.64,-32.1 51.67,-55.77l103.71 -124.6c133.23,-171.24 288.27,-333.29 428.11,-498.58l375.25 -430.56c23.83,-26.82 23.47,-33.27 47.36,-60.09 24.94,-28 34.28,-34.62 56.86,-64.01 20.81,-27.09 26.1,-31 50.33,-57.11 98.29,-105.85 66.09,-104.61 245.11,-104.07 80.58,0.24 161.18,0.02 241.76,0.02 -62.56,93.43 -147.02,166.84 -214.88,255.17 -134.9,175.59 -290.92,337.42 -433.79,506.33 -20.02,23.67 -32.67,32.19 -51.67,55.77l-109.49 132.25c-22.91,27.08 -34.13,33.45 -57.45,63.42l-865.21 1015.02zm-3881.33 -2377.14l0 5492.95c0,176.15 106.33,354.91 218.18,466.76 112.95,112.95 288.89,218.18 466.76,218.18l5506.38 0c331.26,0 684.94,-353.43 684.94,-684.94l0 -5506.38c0,-176.15 -106.33,-354.91 -218.18,-466.76 -112.95,-112.95 -288.89,-218.18 -466.76,-218.18l-5506.38 0c-88.12,0 -201.06,39.84 -264.33,71.42 -219.78,109.69 -420.61,345.42 -420.61,626.95z"/>
   <path fill="#FCD5A6" d="M4566.27 5533.24l644.65 0c-12.44,-46.58 -146.4,-219.3 -177.26,-265.94l-730.32 -1042.46c-65.6,-90.14 -117.27,-173.31 -182.31,-260.89l-1824.46 -2620.94 -631.22 0c4.76,57.2 211.49,335.94 258.95,399.13l458.52 656.19c425.12,584.15 852.08,1239.22 1277.96,1824.41l816.8 1170.87c30.05,45.53 75.91,91.74 88.69,139.62z"/>
  </g>
 </g>
</svg>
