<?xml version="1.0" encoding="UTF-8"?>
<!DOCTYPE svg PUBLIC "-//W3C//DTD SVG 1.1//EN" "http://www.w3.org/Graphics/SVG/1.1/DTD/svg11.dtd">
<!-- Creator: CorelDRAW 2021 (64-Bit) -->
<svg xmlns="http://www.w3.org/2000/svg" xml:space="preserve" width="5.33266in" height="5.27515in" version="1.1" shape-rendering="geometricPrecision" text-rendering="geometricPrecision" image-rendering="optimizeQuality" fill-rule="evenodd" clip-rule="evenodd"
viewBox="0 0 1965.77 1944.57"
 xmlns:xlink="http://www.w3.org/1999/xlink"
 xmlns:xodm="http://www.corel.com/coreldraw/odm/2003">
 <g id="Layer_x0020_1">
  <metadata id="CorelCorpID_0Corel-Layer"/>
  <path fill="#1C1B17" d="M7.68 185.19c0,101.75 77.66,156.37 146.86,225.56 42.92,42.92 546.01,541.23 559.59,561.51 -13.87,20.71 -587.92,590.04 -651.74,653.66 -17.85,17.79 -27.62,28.28 -40.64,51.5 -13.59,24.26 -20.76,52.95 -21.75,82.15l0 14.18c1.6,46.66 18.84,92.98 50.73,122.99 46.98,44.21 95.81,46.89 156.6,46.89 50.13,0 99.65,-32.58 125.82,-58.48l460.65 -460.8c31.65,-31.65 60.49,-60.49 92.15,-92.15 22.81,-22.81 78.19,-72.76 93.11,-95.02 24.61,16.48 576.13,577.14 651.66,649.89 83.95,80.87 229.21,71.22 285.81,3.46 29.1,-34.83 45.61,-73.48 49.25,-112.37l0 -32.93c-4.05,-43 -24.06,-85.05 -60.47,-121.24l-420.42 -420.41c-8.59,-8.59 -14.38,-14.62 -22.96,-23.11 -10.49,-10.38 -16.6,-12.85 -27.03,-22.88l-187.09 -189.17c21.35,-14.3 580.57,-578.92 646.03,-644 17.98,-17.88 26.03,-31.67 37.45,-54.7 63.84,-128.72 -45.95,-264.99 -153.65,-264.99 -66.41,0 -103.59,9.05 -152.63,58.54l-549.02 549.04c-22.43,22.43 -71.17,76.49 -93.1,91.19 -31.24,-20.92 -140.7,-145.77 -185.42,-183.16 -10.86,-9.08 -14.46,-10.78 -24.82,-21.26l-437.65 -437.73c-132.32,-133.11 -327.31,-30.29 -327.31,123.82z"/>
 </g>
</svg>
